<svg xmlns="http://www.w3.org/2000/svg" version="1.1" xmlns:xlink="http://www.w3.org/1999/xlink" xmlns:svgjs="http://svgjs.dev/svgjs" width="100%" height="100%" viewBox="0 0 1000 600"><rect width="1000" height="600" x="0" y="0" fill="orange"/><g><circle r="166.66666666666666" cx="252.57291666666663" cy="274.79514000145593" fill="darkblue" transform="matrix(1.4550745725718444,0,0,1.4550745725718444,0,-99.84742664414868)"/><path d="M225.37360559590485 199.79514731536213L279.80269811029405 199.79514731536213Q284.06925631410957 199.79514731536213 288.4272407651497 200.13037688851907Q292.7547498004483 200.43513104593447 296.28989802646686 201.92842641726986Q299.82504625248544 203.45219720434685 302.01927618587627 206.49973877850076Q304.2135061192671 209.5472803526547 304.2135061192671 215.00237977039026L304.2135061192671 215.00237977039026Q304.2135061192671 220.36605294090117 302.01927618587627 223.4135945150551Q299.82504625248544 226.49161150495055 296.28989802646686 227.984906876286Q292.7547498004483 229.47820224762143 288.4272407651497 229.8439072365199Q284.06925631410957 230.2400876411599 279.80269811029405 230.2400876411599L279.80269811029405 230.2400876411599L268.86202385908143 230.2400876411599L268.86202385908143 325.3538601705041Q268.86202385908143 329.98612336321804 268.5877451174076 334.3745832299997Q268.3134663757337 338.76304309678136 266.8201710043983 342.1762896598338Q265.32687563306285 345.62001163862766 262.00505531723513 347.69233990905235Q258.6832350014073 349.7951435952186 252.58815185309945 349.7951435952186L252.58815185309945 349.7951435952186Q246.46259328905003 349.7951435952186 243.14077297322225 347.69233990905235Q239.81895265739448 345.62001163862766 238.32565728605906 342.1762896598338Q236.8323619147236 338.76304309678136 236.55808317304977 334.3745832299997Q236.28380443137593 329.98612336321804 236.28380443137593 325.3538601705041L236.28380443137593 325.3538601705041L236.28380443137593 230.2400876411599L225.37360559590485 230.2400876411599Q221.0765719763478 230.2400876411599 216.7490629410492 229.8439072365199Q212.3910784900091 229.47820224762143 208.85593026399053 227.984906876286Q205.32078203797198 226.49161150495055 203.12655210458115 223.4135945150551Q200.93232217119032 220.36605294090117 200.93232217119032 215.00237977039026L200.93232217119032 215.00237977039026Q200.93232217119032 209.5472803526547 203.12655210458115 206.49973877850076Q205.32078203797198 203.45219720434685 208.85593026399053 201.92842641726986Q212.3910784900091 200.43513104593447 216.7490629410492 200.13037688851907Q221.0765719763478 199.79514731536213 225.37360559590485 199.79514731536213L225.37360559590485 199.79514731536213Z " fill="Orange" transform="matrix(1.4550745725718444,0,0,1.4550745725718444,0,-99.84742664414868)"/><path d="M518.8467888352111 199.79514731536213L549.9317128915811 199.79514731536213Q559.4705180186829 199.79514731536213 567.8817327633478 202.26365599042683Q576.2929475080127 204.7321646654915 582.5404077350281 209.66918201562086Q588.8183433777854 214.5757239500087 592.4144424352869 221.92029914371966Q596.0105414927887 229.26487433743065 596.0105414927887 239.0170073747232L596.0105414927887 239.0170073747232Q596.0105414927887 244.0454509720772 594.6696232001609 248.15963209718504Q593.3287049075332 252.30428863803436 591.2259012213669 255.62610895386214Q589.1535729509421 258.9479292696899 586.6241134443944 261.41643794475465Q584.0946539378467 263.85447120407775 581.7480469257482 265.622045317087Q579.4014399136497 267.38961943009633 577.5729149691572 268.4257835653086Q575.7443900246649 269.4314722847795 574.9825046311264 269.64480019497023L574.9825046311264 269.64480019497023Q581.4128173525912 271.47332513946264 585.8317526351145 274.3075388034257Q590.2202125018962 277.14175246738887 593.145852413084 280.5245236146998Q596.1019677400132 283.9072947620107 597.7781156057979 287.5033938195122Q599.423788055841 291.0690174612723 600.2161488651211 294.45178860858323Q601.0389850901427 297.83455975589413 601.1913621688502 300.6687734198572Q601.343739247558 303.50298708382036 601.343739247558 305.20961036534663L601.343739247558 305.20961036534663Q601.343739247558 313.59034969426995 599.3018863928748 319.9597115842516Q597.2905089539331 326.3290734742333 593.9686886381055 330.9918120826888Q590.6468683222777 335.6545506911444 586.3498347027207 338.91542017548903Q582.0528010831636 342.1762896598338 577.6643412163819 344.21814251451684L577.6643412163819 344.21814251451684Q567.1807982012924 349.15515986464624 553.9849431852058 349.7951435952186L553.9849431852058 349.7951435952186L518.8467888352111 349.7951435952186Q512.7517056869033 349.7951435952186 509.4298853710754 347.69233990905235Q506.1080650552476 345.62001163862766 504.6147696839122 342.14581424409226Q503.0909988968352 338.6411414338152 502.8471955709029 334.25268156703356Q502.57291682922903 329.8642217002519 502.57291682922903 325.14053226031325L502.57291682922903 325.14053226031325L502.57291682922903 224.23643074007666Q502.57291682922903 219.63464296310423 502.8471955709029 215.21570768058103Q503.0909988968352 210.82724781379935 504.6147696839122 207.41400125074696Q506.1080650552476 203.97027927195302 509.4298853710754 201.89795100152833Q512.7517056869033 199.79514731536213 518.8467888352111 199.79514731536213L518.8467888352111 199.79514731536213ZM549.9317128915811 284.212048919426L535.1511362569345 284.212048919426L535.1511362569345 324.500548529741L550.7850245323443 324.500548529741Q555.8134681296983 324.28722061955017 559.7752721760983 322.1539415176424L559.7752721760983 322.1539415176424Q561.4818954576244 321.3006298768793 563.0970924919261 319.8987607527685Q564.7122895262278 318.4968916286577 565.9922569873725 316.424563358233Q567.2722244485169 314.3217596720669 568.0341098420554 311.60944767106986Q568.7959952355939 308.86666025433135 568.7959952355939 305.20961036534663L568.7959952355939 305.20961036534663Q568.7959952355939 301.24780631894646 567.9731590105723 298.3221664077587Q567.1807982012924 295.3660510808294 565.8398799086647 293.17182114743855Q564.4989616160369 290.9775912140477 562.7923383345108 289.42334501122923Q561.055239637243 287.86909880841074 559.3486163557168 286.8938855046815L559.3486163557168 286.8938855046815Q555.173484399126 284.6387047398076 549.9317128915811 284.212048919426L549.9317128915811 284.212048919426ZM548.0117616998641 225.08974238083974L535.1511362569345 225.08974238083974L535.1511362569345 261.50786419197925L548.8650733406273 261.50786419197925Q553.4668611175998 261.2945362817885 557.0934355908428 259.3745850900715L557.0934355908428 259.3745850900715Q558.61720637792 258.612699696533 560.1105017492553 257.33273223538833Q561.6037971205908 256.05276477424366 562.7923383345108 254.2851906612344Q563.9504041326893 252.5176165482251 564.6513386947447 250.04910787316047Q565.3522732568001 247.58059919809577 565.3522732568001 244.38068054523413L565.3522732568001 244.38068054523413Q565.3522732568001 240.7236306562494 564.5903878632616 237.9808432395109Q563.8589778854646 235.26853123851387 562.6094858400616 233.28762921531384Q561.3904692103999 231.30672719211375 559.8362230075813 229.90485806800297Q558.281976804763 228.50298894389218 556.6667797704613 227.55825105590444L556.6667797704613 227.55825105590444Q552.8268773870275 225.5163982012213 548.0117616998641 225.08974238083974L548.0117616998641 225.08974238083974Z " fill="darkblue" transform="matrix(1.4550745725718444,0,0,1.4550745725718444,0,-99.84742664414868)"/></g></svg>